<svg width="89" height="19" viewBox="0 0 89 19" fill="none" xmlns="http://www.w3.org/2000/svg">
<path d="M15.0225 9.03516C15.0225 6.56543 14.3545 4.69336 13.0186 3.41895C11.6914 2.14453 9.79297 1.50732 7.32324 1.50732H4.9502V16.7607C6.00488 16.8311 7.25732 16.8662 8.70752 16.8662C10.8696 16.8662 12.4604 16.229 13.48 14.9546C14.5083 13.6802 15.0225 11.707 15.0225 9.03516ZM8.16699 0.320801C11.4277 0.320801 13.8447 1.05029 15.418 2.50928C16.9912 3.95947 17.7778 6.14355 17.7778 9.06152C17.7778 12.0146 17.0176 14.2515 15.4971 15.772C13.9854 17.2925 11.7222 18.0527 8.70752 18.0527L2.40576 18H0.138184V17.3013L2.40576 16.9453V1.3623L0.138184 1.01953V0.320801H8.16699ZM22.2998 11.7642V12.0015C22.2998 13.2144 22.4316 14.1592 22.6953 14.8359C22.9678 15.5039 23.3809 16.0137 23.9346 16.3652C24.4971 16.7168 25.231 16.8926 26.1362 16.8926C26.6108 16.8926 27.1733 16.853 27.8237 16.7739C28.4741 16.6948 29.0103 16.6069 29.4321 16.5103V17.2485C29.0103 17.521 28.4346 17.7583 27.7051 17.9604C26.9844 18.1626 26.2461 18.2637 25.4902 18.2637C23.5654 18.2637 22.1548 17.7451 21.2583 16.708C20.3706 15.6709 19.9268 14.0054 19.9268 11.7114C19.9268 9.54932 20.3794 7.93652 21.2847 6.87305C22.1899 5.80957 23.4819 5.27783 25.1606 5.27783C28.3335 5.27783 29.9199 7.07959 29.9199 10.6831V11.7642H22.2998ZM25.1606 6.33252C24.2466 6.33252 23.5435 6.70166 23.0513 7.43994C22.5679 8.17822 22.3262 9.26807 22.3262 10.7095H27.626C27.626 9.13623 27.4238 8.01562 27.0195 7.34766C26.6152 6.6709 25.9956 6.33252 25.1606 6.33252ZM38.2124 18.2637H37.2368L32.1348 6.53027L30.8691 6.20068V5.60742H36.6436V6.20068L34.6792 6.55664L38.2915 15.1128L41.7456 6.53027L39.7812 6.20068V5.60742H44.3691V6.20068L43.1826 6.47754L38.2124 18.2637ZM54.5732 18.2637C51.708 18.2637 49.4756 17.4858 47.876 15.9302C46.2764 14.3657 45.4766 12.1772 45.4766 9.36475C45.4766 6.32373 46.2456 4.02539 47.7837 2.46973C49.3218 0.905273 51.6025 0.123047 54.626 0.123047C56.4629 0.123047 58.436 0.347168 60.5454 0.79541L60.6245 4.6582H59.7544L59.3589 2.36426C58.7437 1.98633 58.0273 1.69629 57.21 1.49414C56.4014 1.2832 55.5752 1.17773 54.7314 1.17773C52.4727 1.17773 50.8247 1.84131 49.7876 3.16846C48.7505 4.49561 48.2319 6.55225 48.2319 9.33838C48.2319 11.9048 48.7725 13.8647 49.8535 15.2183C50.9434 16.5718 52.5254 17.2485 54.5996 17.2485C55.6016 17.2485 56.5464 17.1299 57.4341 16.8926C58.3218 16.6465 59.0249 16.3213 59.5435 15.917L60.0312 13.2803H60.8882L60.8091 17.4331C58.8755 17.9868 56.7969 18.2637 54.5732 18.2637ZM74.8496 11.7378C74.8496 16.0884 72.916 18.2637 69.0488 18.2637C67.1855 18.2637 65.7793 17.7056 64.8301 16.5894C63.8809 15.4731 63.4062 13.856 63.4062 11.7378C63.4062 9.646 63.8809 8.04639 64.8301 6.93896C65.7793 5.83154 67.2207 5.27783 69.1543 5.27783C71.0352 5.27783 72.4546 5.82275 73.4126 6.9126C74.3706 7.99365 74.8496 9.60205 74.8496 11.7378ZM72.4766 11.7378C72.4766 9.83936 72.1997 8.46387 71.646 7.61133C71.0923 6.75879 70.2266 6.33252 69.0488 6.33252C67.8975 6.33252 67.0625 6.74121 66.5439 7.55859C66.0342 8.37598 65.7793 9.76904 65.7793 11.7378C65.7793 13.7329 66.0386 15.1479 66.5571 15.9829C67.0845 16.8091 67.915 17.2222 69.0488 17.2222C70.209 17.2222 71.0703 16.7915 71.6328 15.9302C72.1953 15.0688 72.4766 13.6714 72.4766 11.7378ZM80.1494 6.60938C80.8262 6.22266 81.5469 5.90625 82.3115 5.66016C83.0762 5.40527 83.7134 5.27783 84.2231 5.27783C85.2954 5.27783 86.104 5.58984 86.6489 6.21387C87.1938 6.83789 87.4663 7.74316 87.4663 8.92969V17.0771L88.9692 17.4067V18H83.6299V17.4067L85.2778 17.0771V9.16699C85.2778 8.4375 85.0977 7.86621 84.7373 7.45312C84.3857 7.03125 83.8364 6.82031 83.0894 6.82031C82.2983 6.82031 81.3271 6.94775 80.1758 7.20264V17.0771L81.8501 17.4067V18H76.4976V17.4067L77.9873 17.0771V6.53027L76.4976 6.20068V5.60742H80.0308L80.1494 6.60938Z" fill="white"/>
</svg>
