<svg width="239" height="33" viewBox="0 0 239 33" fill="none" xmlns="http://www.w3.org/2000/svg">
<path d="M26.8438 16.0625C26.8438 11.6719 25.6562 8.34375 23.2812 6.07812C20.9219 3.8125 17.5469 2.67969 13.1562 2.67969H8.9375V29.7969C10.8125 29.9219 13.0391 29.9844 15.6172 29.9844C19.4609 29.9844 22.2891 28.8516 24.1016 26.5859C25.9297 24.3203 26.8438 20.8125 26.8438 16.0625ZM14.6562 0.570312C20.4531 0.570312 24.75 1.86719 27.5469 4.46094C30.3438 7.03906 31.7422 10.9219 31.7422 16.1094C31.7422 21.3594 30.3906 25.3359 27.6875 28.0391C25 30.7422 20.9766 32.0938 15.6172 32.0938L4.41406 32H0.382812V30.7578L4.41406 30.125V2.42188L0.382812 1.8125V0.570312H14.6562ZM39.7812 20.9141V21.3359C39.7812 23.4922 40.0156 25.1719 40.4844 26.375C40.9688 27.5625 41.7031 28.4688 42.6875 29.0938C43.6875 29.7188 44.9922 30.0312 46.6016 30.0312C47.4453 30.0312 48.4453 29.9609 49.6016 29.8203C50.7578 29.6797 51.7109 29.5234 52.4609 29.3516V30.6641C51.7109 31.1484 50.6875 31.5703 49.3906 31.9297C48.1094 32.2891 46.7969 32.4688 45.4531 32.4688C42.0312 32.4688 39.5234 31.5469 37.9297 29.7031C36.3516 27.8594 35.5625 24.8984 35.5625 20.8203C35.5625 16.9766 36.3672 14.1094 37.9766 12.2188C39.5859 10.3281 41.8828 9.38281 44.8672 9.38281C50.5078 9.38281 53.3281 12.5859 53.3281 18.9922V20.9141H39.7812ZM44.8672 11.2578C43.2422 11.2578 41.9922 11.9141 41.1172 13.2266C40.2578 14.5391 39.8281 16.4766 39.8281 19.0391H49.25C49.25 16.2422 48.8906 14.25 48.1719 13.0625C47.4531 11.8594 46.3516 11.2578 44.8672 11.2578ZM68.0703 32.4688H66.3359L57.2656 11.6094L55.0156 11.0234V9.96875H65.2812V11.0234L61.7891 11.6562L68.2109 26.8672L74.3516 11.6094L70.8594 11.0234V9.96875H79.0156V11.0234L76.9062 11.5156L68.0703 32.4688ZM97.1562 32.4688C92.0625 32.4688 88.0938 31.0859 85.25 28.3203C82.4062 25.5391 80.9844 21.6484 80.9844 16.6484C80.9844 11.2422 82.3516 7.15625 85.0859 4.39062C87.8203 1.60937 91.875 0.21875 97.25 0.21875C100.516 0.21875 104.023 0.617188 107.773 1.41406L107.914 8.28125H106.367L105.664 4.20312C104.57 3.53125 103.297 3.01562 101.844 2.65625C100.406 2.28125 98.9375 2.09375 97.4375 2.09375C93.4219 2.09375 90.4922 3.27344 88.6484 5.63281C86.8047 7.99219 85.8828 11.6484 85.8828 16.6016C85.8828 21.1641 86.8438 24.6484 88.7656 27.0547C90.7031 29.4609 93.5156 30.6641 97.2031 30.6641C98.9844 30.6641 100.664 30.4531 102.242 30.0312C103.82 29.5938 105.07 29.0156 105.992 28.2969L106.859 23.6094H108.383L108.242 30.9922C104.805 31.9766 101.109 32.4688 97.1562 32.4688ZM133.203 20.8672C133.203 28.6016 129.766 32.4688 122.891 32.4688C119.578 32.4688 117.078 31.4766 115.391 29.4922C113.703 27.5078 112.859 24.6328 112.859 20.8672C112.859 17.1484 113.703 14.3047 115.391 12.3359C117.078 10.3672 119.641 9.38281 123.078 9.38281C126.422 9.38281 128.945 10.3516 130.648 12.2891C132.352 14.2109 133.203 17.0703 133.203 20.8672ZM128.984 20.8672C128.984 17.4922 128.492 15.0469 127.508 13.5312C126.523 12.0156 124.984 11.2578 122.891 11.2578C120.844 11.2578 119.359 11.9844 118.438 13.4375C117.531 14.8906 117.078 17.3672 117.078 20.8672C117.078 24.4141 117.539 26.9297 118.461 28.4141C119.398 29.8828 120.875 30.6172 122.891 30.6172C124.953 30.6172 126.484 29.8516 127.484 28.3203C128.484 26.7891 128.984 24.3047 128.984 20.8672ZM142.625 11.75C143.828 11.0625 145.109 10.5 146.469 10.0625C147.828 9.60938 148.961 9.38281 149.867 9.38281C151.773 9.38281 153.211 9.9375 154.18 11.0469C155.148 12.1562 155.633 13.7656 155.633 15.875V30.3594L158.305 30.9453V32H148.812V30.9453L151.742 30.3594V16.2969C151.742 15 151.422 13.9844 150.781 13.25C150.156 12.5 149.18 12.125 147.852 12.125C146.445 12.125 144.719 12.3516 142.672 12.8047V30.3594L145.648 30.9453V32H136.133V30.9453L138.781 30.3594V11.6094L136.133 11.0234V9.96875H142.414L142.625 11.75ZM166.625 11.75C167.828 11.0625 169.109 10.5 170.469 10.0625C171.828 9.60938 172.961 9.38281 173.867 9.38281C175.773 9.38281 177.211 9.9375 178.18 11.0469C179.148 12.1562 179.633 13.7656 179.633 15.875V30.3594L182.305 30.9453V32H172.812V30.9453L175.742 30.3594V16.2969C175.742 15 175.422 13.9844 174.781 13.25C174.156 12.5 173.18 12.125 171.852 12.125C170.445 12.125 168.719 12.3516 166.672 12.8047V30.3594L169.648 30.9453V32H160.133V30.9453L162.781 30.3594V11.6094L160.133 11.0234V9.96875H166.414L166.625 11.75ZM189.125 20.9141V21.3359C189.125 23.4922 189.359 25.1719 189.828 26.375C190.312 27.5625 191.047 28.4688 192.031 29.0938C193.031 29.7188 194.336 30.0312 195.945 30.0312C196.789 30.0312 197.789 29.9609 198.945 29.8203C200.102 29.6797 201.055 29.5234 201.805 29.3516V30.6641C201.055 31.1484 200.031 31.5703 198.734 31.9297C197.453 32.2891 196.141 32.4688 194.797 32.4688C191.375 32.4688 188.867 31.5469 187.273 29.7031C185.695 27.8594 184.906 24.8984 184.906 20.8203C184.906 16.9766 185.711 14.1094 187.32 12.2188C188.93 10.3281 191.227 9.38281 194.211 9.38281C199.852 9.38281 202.672 12.5859 202.672 18.9922V20.9141H189.125ZM194.211 11.2578C192.586 11.2578 191.336 11.9141 190.461 13.2266C189.602 14.5391 189.172 16.4766 189.172 19.0391H198.594C198.594 16.2422 198.234 14.25 197.516 13.0625C196.797 11.8594 195.695 11.2578 194.211 11.2578ZM224.188 30.6641C223.422 31.2266 222.367 31.6719 221.023 32C219.68 32.3125 218.305 32.4688 216.898 32.4688C209.758 32.4688 206.188 28.5859 206.188 20.8203C206.188 17.1484 207.094 14.3281 208.906 12.3594C210.734 10.375 213.344 9.38281 216.734 9.38281C218.844 9.38281 221.148 9.625 223.648 10.1094V16.25H222.359L221.352 12.3594C220.055 11.625 218.5 11.2578 216.688 11.2578C212.5 11.2578 210.406 14.4453 210.406 20.8203C210.406 24.1328 211.039 26.5 212.305 27.9219C213.586 29.3281 215.562 30.0312 218.234 30.0312C220.516 30.0312 222.5 29.7734 224.188 29.2578V30.6641ZM233.516 32.4688C232.016 32.4688 230.891 32.0234 230.141 31.1328C229.406 30.2422 229.039 28.9922 229.039 27.3828V11.9375H226.156V10.8828L229.086 9.96875L231.453 4.97656H232.93V9.96875H237.969V11.9375H232.93V26.9609C232.93 27.9766 233.156 28.7422 233.609 29.2578C234.078 29.7734 234.688 30.0312 235.438 30.0312C236.344 30.0312 237.445 29.9062 238.742 29.6562V31.1797C238.195 31.5547 237.406 31.8594 236.375 32.0938C235.344 32.3438 234.391 32.4688 233.516 32.4688Z" fill="white"/>
</svg>
