<svg width="155" height="22" viewBox="0 0 155 22" fill="none" xmlns="http://www.w3.org/2000/svg">
<path d="M17.5803 10.707C17.5803 7.87142 16.8134 5.72201 15.2795 4.25879C13.7558 2.79557 11.5761 2.06396 8.74048 2.06396H6.01587V19.5771C7.22681 19.6579 8.66479 19.6982 10.3298 19.6982C12.8123 19.6982 14.6388 18.9666 15.8093 17.5034C16.99 16.0402 17.5803 13.7747 17.5803 10.707ZM9.70923 0.70166C13.453 0.70166 16.2281 1.53923 18.0344 3.21436C19.8407 4.87939 20.7439 7.38704 20.7439 10.7373C20.7439 14.1279 19.871 16.6961 18.1252 18.4419C16.3896 20.1877 13.7911 21.0605 10.3298 21.0605L3.09448 21H0.490967V20.1978L3.09448 19.7891V1.89746L0.490967 1.50391V0.70166H9.70923ZM25.9358 13.8403V14.1128C25.9358 15.5054 26.0872 16.5902 26.3899 17.3672C26.7027 18.1341 27.177 18.7194 27.8127 19.123C28.4586 19.5267 29.3012 19.7285 30.3406 19.7285C30.8855 19.7285 31.5313 19.6831 32.2781 19.5923C33.0248 19.5015 33.6404 19.4006 34.1248 19.2896V20.1372C33.6404 20.45 32.9794 20.7225 32.1418 20.9546C31.3144 21.1867 30.4667 21.3027 29.5989 21.3027C27.3889 21.3027 25.7693 20.7074 24.74 19.5166C23.7208 18.3258 23.2112 16.4136 23.2112 13.7798C23.2112 11.2974 23.7309 9.44564 24.7703 8.22461C25.8097 7.00358 27.2931 6.39307 29.2205 6.39307C32.8634 6.39307 34.6848 8.46175 34.6848 12.5991V13.8403H25.9358ZM29.2205 7.604C28.171 7.604 27.3637 8.02783 26.7986 8.87549C26.2436 9.72314 25.9661 10.9744 25.9661 12.6294H32.051C32.051 10.8231 31.8189 9.53646 31.3547 8.76953C30.8905 7.99251 30.1791 7.604 29.2205 7.604ZM44.2058 21.3027H43.0857L37.2278 7.83105L35.7747 7.45264V6.77148H42.4045V7.45264L40.1492 7.86133L44.2966 17.6851L48.2625 7.83105L46.0071 7.45264V6.77148H51.2747V7.45264L49.9124 7.77051L44.2058 21.3027ZM62.9905 21.3027C59.7008 21.3027 57.1376 20.4097 55.301 18.6235C53.4644 16.8273 52.5461 14.3146 52.5461 11.0854C52.5461 7.59391 53.4291 4.95508 55.1951 3.16895C56.961 1.37272 59.5797 0.474609 63.051 0.474609C65.1601 0.474609 67.4255 0.731934 69.8474 1.24658L69.9382 5.68164H68.9392L68.4851 3.04785C67.7787 2.61393 66.9563 2.28092 66.0178 2.04883C65.0894 1.80664 64.1409 1.68555 63.1721 1.68555C60.5787 1.68555 58.6866 2.44743 57.4958 3.97119C56.3051 5.49495 55.7097 7.85628 55.7097 11.0552C55.7097 14.0018 56.3303 16.2521 57.5715 17.8062C58.8228 19.3602 60.6392 20.1372 63.0208 20.1372C64.1711 20.1372 65.2559 20.001 66.2751 19.7285C67.2944 19.446 68.1016 19.0726 68.697 18.6084L69.2571 15.5811H70.241L70.1501 20.3491C67.9301 20.9849 65.5435 21.3027 62.9905 21.3027ZM86.2708 13.8101C86.2708 18.8052 84.0507 21.3027 79.6106 21.3027C77.4713 21.3027 75.8567 20.6619 74.7668 19.3804C73.677 18.0988 73.1321 16.242 73.1321 13.8101C73.1321 11.4084 73.677 9.57178 74.7668 8.30029C75.8567 7.02881 77.5116 6.39307 79.7317 6.39307C81.8912 6.39307 83.5209 7.01872 84.6208 8.27002C85.7208 9.51123 86.2708 11.3579 86.2708 13.8101ZM83.5461 13.8101C83.5461 11.6304 83.2283 10.0511 82.5925 9.07227C81.9568 8.09342 80.9628 7.604 79.6106 7.604C78.2887 7.604 77.33 8.07324 76.7346 9.01172C76.1493 9.9502 75.8567 11.5496 75.8567 13.8101C75.8567 16.1007 76.1544 17.7254 76.7498 18.6841C77.3552 19.6326 78.3088 20.1069 79.6106 20.1069C80.9426 20.1069 81.9316 19.6125 82.5774 18.6235C83.2232 17.6346 83.5461 16.0301 83.5461 13.8101ZM92.3557 7.92188C93.1327 7.47786 93.9602 7.11458 94.8381 6.83203C95.7161 6.53939 96.4477 6.39307 97.033 6.39307C98.2641 6.39307 99.1925 6.7513 99.8181 7.46777C100.444 8.18424 100.757 9.22363 100.757 10.5859V19.9404L102.482 20.3188V21H96.3518V20.3188L98.2439 19.9404V10.8584C98.2439 10.0208 98.037 9.36491 97.6233 8.89062C97.2196 8.40625 96.5889 8.16406 95.7312 8.16406C94.823 8.16406 93.7079 8.31038 92.386 8.60303V19.9404L94.3083 20.3188V21H88.1628V20.3188L89.8733 19.9404V7.83105L88.1628 7.45264V6.77148H92.2195L92.3557 7.92188ZM107.856 7.92188C108.633 7.47786 109.46 7.11458 110.338 6.83203C111.216 6.53939 111.948 6.39307 112.533 6.39307C113.764 6.39307 114.692 6.7513 115.318 7.46777C115.944 8.18424 116.257 9.22363 116.257 10.5859V19.9404L117.982 20.3188V21H111.852V20.3188L113.744 19.9404V10.8584C113.744 10.0208 113.537 9.36491 113.123 8.89062C112.72 8.40625 112.089 8.16406 111.231 8.16406C110.323 8.16406 109.208 8.31038 107.886 8.60303V19.9404L109.808 20.3188V21H103.663V20.3188L105.373 19.9404V7.83105L103.663 7.45264V6.77148H107.719L107.856 7.92188ZM122.387 13.8403V14.1128C122.387 15.5054 122.538 16.5902 122.841 17.3672C123.154 18.1341 123.628 18.7194 124.264 19.123C124.91 19.5267 125.752 19.7285 126.792 19.7285C127.337 19.7285 127.983 19.6831 128.729 19.5923C129.476 19.5015 130.092 19.4006 130.576 19.2896V20.1372C130.092 20.45 129.431 20.7225 128.593 20.9546C127.766 21.1867 126.918 21.3027 126.05 21.3027C123.84 21.3027 122.22 20.7074 121.191 19.5166C120.172 18.3258 119.662 16.4136 119.662 13.7798C119.662 11.2974 120.182 9.44564 121.221 8.22461C122.261 7.00358 123.744 6.39307 125.672 6.39307C129.315 6.39307 131.136 8.46175 131.136 12.5991V13.8403H122.387ZM125.672 7.604C124.622 7.604 123.815 8.02783 123.25 8.87549C122.695 9.72314 122.417 10.9744 122.417 12.6294H128.502C128.502 10.8231 128.27 9.53646 127.806 8.76953C127.342 7.99251 126.63 7.604 125.672 7.604ZM145.031 20.1372C144.537 20.5005 143.856 20.7881 142.988 21C142.12 21.2018 141.232 21.3027 140.324 21.3027C135.712 21.3027 133.406 18.7951 133.406 13.7798C133.406 11.4084 133.992 9.58691 135.162 8.31543C136.343 7.03385 138.028 6.39307 140.218 6.39307C141.58 6.39307 143.069 6.54948 144.683 6.8623V10.8281H143.851L143.2 8.31543C142.362 7.84115 141.358 7.604 140.188 7.604C137.483 7.604 136.131 9.6626 136.131 13.7798C136.131 15.9191 136.54 17.4479 137.357 18.3662C138.185 19.2744 139.461 19.7285 141.187 19.7285C142.66 19.7285 143.942 19.562 145.031 19.229V20.1372ZM151.056 21.3027C150.087 21.3027 149.361 21.0151 148.876 20.4399C148.402 19.8647 148.165 19.0575 148.165 18.0181V8.04297H146.303V7.36182L148.195 6.77148L149.724 3.54736H150.677V6.77148H153.932V8.04297H150.677V17.7456C150.677 18.4015 150.824 18.896 151.116 19.229C151.419 19.562 151.813 19.7285 152.297 19.7285C152.882 19.7285 153.594 19.6478 154.431 19.4863V20.4702C154.078 20.7124 153.569 20.9092 152.903 21.0605C152.237 21.222 151.621 21.3027 151.056 21.3027Z" fill="white"/>
</svg>
