<svg width="26" height="30" viewBox="0 0 26 30" fill="none" xmlns="http://www.w3.org/2000/svg">
<path d="M22.9167 0.25C23.6315 0.249774 24.32 0.519742 24.8441 1.00579C25.3682 1.49183 25.6893 2.15803 25.7429 2.87083L25.75 3.08333V22.9167C25.7502 23.6315 25.4803 24.32 24.9942 24.8441C24.5082 25.3682 23.842 25.6893 23.1292 25.7429L22.9167 25.75H3.08333C2.36852 25.7502 1.68003 25.4803 1.15589 24.9942C0.63175 24.5082 0.310695 23.842 0.257084 23.1292L0.25 22.9167V3.08333C0.249774 2.36852 0.519742 1.68003 1.00579 1.15589C1.49183 0.63175 2.15803 0.310695 2.87083 0.257084L3.08333 0.25H22.9167ZM11.5833 17.25H3.08333V22.9167H11.5833V17.25ZM22.9167 17.25H14.4167V22.9167H22.9167V17.25ZM22.9167 10.1667H14.4167V14.4167H22.9167V10.1667ZM11.5833 10.1667H3.08333V14.4167H11.5833V10.1667ZM22.9167 3.08333H14.4167V7.33333H22.9167V3.08333ZM11.5833 3.08333H3.08333V7.33333H11.5833V3.08333Z" fill="white"/>
</svg>
