<svg width="34" height="34" viewBox="0 0 34 34" fill="none" xmlns="http://www.w3.org/2000/svg">
<path d="M17.1416 26.2792L16.9999 26.4208L16.8441 26.2792C10.1149 20.1733 5.66659 16.1358 5.66659 12.0417C5.66659 9.20833 7.79159 7.08333 10.6249 7.08333C12.8066 7.08333 14.9316 8.5 15.6824 10.4267H18.3174C19.0683 8.5 21.1933 7.08333 23.3749 7.08333C26.2083 7.08333 28.3333 9.20833 28.3333 12.0417C28.3333 16.1358 23.8849 20.1733 17.1416 26.2792ZM23.3749 4.25C20.9099 4.25 18.5441 5.3975 16.9999 7.19667C15.4558 5.3975 13.0899 4.25 10.6249 4.25C6.26159 4.25 2.83325 7.66417 2.83325 12.0417C2.83325 17.3825 7.64992 21.76 14.9458 28.3758L16.9999 30.2458L19.0541 28.3758C26.3499 21.76 31.1666 17.3825 31.1666 12.0417C31.1666 7.66417 27.7383 4.25 23.3749 4.25Z" fill="white"/>
</svg>
