<svg width="34" height="34" viewBox="0 0 34 34" fill="none" xmlns="http://www.w3.org/2000/svg">
<path d="M26.9166 11.3333H25.4999V7.08333C25.4999 5.95616 25.0522 4.87515 24.2551 4.07812C23.4581 3.28109 22.3771 2.83333 21.2499 2.83333H7.08325C5.95608 2.83333 4.87508 3.28109 4.07805 4.07812C3.28102 4.87515 2.83325 5.95616 2.83325 7.08333V24.0833C2.83465 24.363 2.9188 24.636 3.07511 24.868C3.23141 25.0999 3.45287 25.2804 3.71159 25.3867C3.87971 25.466 4.06409 25.5048 4.24992 25.5C4.43636 25.5011 4.62118 25.4653 4.79379 25.3948C4.96639 25.3243 5.12338 25.2205 5.25575 25.0892L9.23659 21.0942H11.3333V23.1342C11.3333 24.2613 11.781 25.3423 12.578 26.1394C13.3751 26.9364 14.4561 27.3842 15.5833 27.3842H25.3866L28.7441 30.7558C28.8765 30.8871 29.0334 30.991 29.2061 31.0615C29.3787 31.132 29.5635 31.1677 29.7499 31.1667C29.9358 31.1715 30.1201 31.1326 30.2883 31.0533C30.547 30.9471 30.7684 30.7666 30.9247 30.5346C31.081 30.3027 31.1652 30.0297 31.1666 29.75V15.5833C31.1666 14.4562 30.7188 13.3752 29.9218 12.5781C29.1248 11.7811 28.0438 11.3333 26.9166 11.3333ZM11.3333 15.5833V18.2608H8.65575C8.46931 18.2598 8.28449 18.2955 8.11188 18.366C7.93928 18.4365 7.78229 18.5404 7.64992 18.6717L5.66659 20.6692V7.08333C5.66659 6.70761 5.81584 6.34727 6.08152 6.08159C6.34719 5.81592 6.70753 5.66666 7.08325 5.66666H21.2499C21.6256 5.66666 21.986 5.81592 22.2517 6.08159C22.5173 6.34727 22.6666 6.70761 22.6666 7.08333V11.3333H15.5833C14.4561 11.3333 13.3751 11.7811 12.578 12.5781C11.781 13.3752 11.3333 14.4562 11.3333 15.5833ZM28.3333 26.3358L26.9166 24.9192C26.7854 24.7853 26.6289 24.6788 26.4563 24.6059C26.2836 24.5329 26.0982 24.4949 25.9108 24.4942H15.5833C15.2075 24.4942 14.8472 24.3449 14.5815 24.0792C14.3158 23.8136 14.1666 23.4532 14.1666 23.0775V15.5833C14.1666 15.2076 14.3158 14.8473 14.5815 14.5816C14.8472 14.3159 15.2075 14.1667 15.5833 14.1667H26.9166C27.2923 14.1667 27.6526 14.3159 27.9183 14.5816C28.184 14.8473 28.3333 15.2076 28.3333 15.5833V26.3358Z" fill="white"/>
</svg>
